<svg width="24" height="24" viewBox="0 0 24 24" fill="none" xmlns="http://www.w3.org/2000/svg">
<path d="M12.252 3.25C15.8385 3.25011 18.75 6.16956 18.75 9.77539C18.7499 11.8462 17.7243 14.1519 16.4541 16.2061C15.1885 18.2527 13.7024 20.014 12.8252 20.9873C12.5097 21.337 11.9903 21.337 11.6748 20.9873C10.7976 20.014 9.31151 18.2527 8.0459 16.2061C6.80057 14.1922 5.79317 11.9365 5.75391 9.89746V9.77539C5.75391 6.16949 8.6653 3.25 12.252 3.25ZM12.252 7.34766C11.5873 7.34766 10.9507 7.61806 10.4824 8.09668C10.0144 8.57511 9.75195 9.22319 9.75195 9.89746C9.75205 10.5715 10.0145 11.2189 10.4824 11.6973C10.9507 12.1759 11.5873 12.4463 12.252 12.4463C12.9165 12.4462 13.5532 12.1758 14.0215 11.6973C14.4893 11.219 14.7509 10.5714 14.751 9.89746C14.751 9.22328 14.4894 8.57509 14.0215 8.09668C13.5532 7.61811 12.9165 7.34771 12.252 7.34766Z" stroke="white" stroke-width="0.5"/>
</svg>
