<svg width="48" height="48" viewBox="0 0 48 48" fill="none" xmlns="http://www.w3.org/2000/svg">
<path d="M37.5 31.5C37.5 33.1543 36.1543 34.5 34.5 34.5H13.5C11.8457 34.5 10.5 33.1543 10.5 31.5V22.2188L20.5498 29.7559C22.5925 31.2894 25.4075 31.2894 27.4502 29.7559L37.5 22.2188V31.5ZM12.625 14.5H35.375C36.5481 14.5 37.5 15.4519 37.5 16.625C37.5 17.2931 37.1859 17.9217 36.6494 18.3252L25.2754 26.8564C24.518 27.4233 23.482 27.4233 22.7246 26.8564L11.3496 18.3252H11.3506C10.8141 17.9217 10.5 17.2931 10.5 16.625C10.5 15.4519 11.4519 14.5 12.625 14.5Z" stroke="#FAF4C3"/>
</svg>
