<svg width="48" height="48" viewBox="0 0 48 48" fill="none" xmlns="http://www.w3.org/2000/svg">
<path d="M18.1631 13.5449C18.7619 13.3831 19.3899 13.6605 19.6787 14.2041L19.7324 14.3164L21.5557 18.6875C21.7774 19.2325 21.6212 19.8534 21.1719 20.2188L19.1855 21.8359L18.8867 22.0791L19.0459 22.4297C20.5537 25.7562 23.1796 28.4651 26.4404 30.084L26.7969 30.2617L27.0498 29.9531L28.7822 27.832L28.7832 27.833C29.1331 27.4064 29.7026 27.2432 30.2139 27.4092L30.3154 27.4473L34.6875 29.2666C35.2993 29.5204 35.6291 30.1918 35.4531 30.834L35.4521 30.835L35.3848 31.082C34.6667 33.7173 32.2051 35.9008 29.2344 35.4365L28.9453 35.3828C21.5166 33.8079 15.6205 28.0949 13.7812 20.7676L13.6162 20.0537C12.9826 17.0547 15.0603 14.5179 17.6631 13.6885L17.917 13.6133L18.1641 13.5459L18.1631 13.5449Z" stroke="#FAF4C3"/>
</svg>
